<?xml version="1.0" encoding="UTF-8"?>
<!-- Generated by Pixelmator Pro 3.6.17 -->
<svg width="1194" height="223" viewBox="0 0 1194 223" xmlns="http://www.w3.org/2000/svg">
    <path id="ARAUM" fill="#000000" fill-rule="evenodd" stroke="none" d="M 1099.75 16.46875 L 1112.40625 16.46875 C 1146.906372 16.46875 1167.53125 28.187378 1174.28125 51.625 C 1176.4375 59.218781 1177.515625 67.984329 1177.515625 77.921875 L 1177.515625 208 L 1099.75 208 Z M 995.40625 16.46875 L 1073.59375 16.46875 L 1073.59375 208 L 995.40625 208 Z M 890.78125 16.46875 L 968.96875 16.46875 L 968.96875 208 L 890.78125 208 Z M 770.40625 16.46875 L 848.59375 16.46875 L 848.59375 208 L 770.40625 208 Z M 669.4375 16.46875 L 747.203125 16.46875 L 747.203125 208 L 734.546875 208 C 700.046692 208 679.468811 196.281372 672.8125 172.84375 C 670.5625 165.249969 669.4375 156.484421 669.4375 146.546875 Z M 556.234375 16.609375 L 568.890625 16.609375 C 603.390808 16.609375 623.968689 28.281128 630.625 51.625 C 632.875 59.312546 634 68.124954 634 78.0625 L 634 208 L 556.234375 208 Z M 452.453125 78.0625 C 452.453125 57.343643 457.187439 42.156296 466.65625 32.5 C 477.062561 21.906189 494.031128 16.609375 517.5625 16.609375 L 530.21875 16.609375 L 530.21875 208 L 452.453125 208 Z M 415.609375 76.09375 C 415.609375 104.406387 403.234497 123.015579 378.484375 131.921875 C 392.359436 137.078156 402.812469 145.468689 409.84375 157.09375 C 415.937531 167.406311 418.984375 179.406189 418.984375 193.09375 L 418.984375 208 L 335.171875 208 L 335.171875 16.328125 L 342.484375 16.328125 C 367.234497 16.328125 385.468689 21.015564 397.1875 30.390625 C 409.468811 40.234421 415.609375 55.468643 415.609375 76.09375 Z M 236.171875 16.609375 L 311.828125 16.609375 L 311.828125 208 L 236.171875 208 Z M 124.796875 16.609375 L 137.453125 16.609375 C 171.953293 16.609375 192.531219 28.281128 199.1875 51.625 C 201.437515 59.312546 202.5625 68.124954 202.5625 78.0625 L 202.5625 208 L 124.796875 208 Z M 21.015625 78.0625 C 21.015625 57.343643 25.749952 42.156296 35.21875 32.5 C 45.625053 21.906189 62.593632 16.609375 86.125 16.609375 L 98.78125 16.609375 L 98.78125 208 L 21.015625 208 Z"/>
</svg>
