<?xml version="1.0" encoding="UTF-8"?>
<!-- Generated by Pixelmator Pro 3.6.17 -->
<svg width="438" height="219" viewBox="0 0 438 219" xmlns="http://www.w3.org/2000/svg">
    <path id="AM" fill="#000000" fill-rule="evenodd" stroke="none" d="M 36.21875 31.5 C 26.749952 41.156311 22.015625 56.343628 22.015625 77.0625 L 22.015625 207 L 99.78125 207 L 99.78125 15.609375 L 87.125 15.609375 C 63.593632 15.609375 46.625053 20.906189 36.21875 31.5 Z M 129.425003 15.609375 L 125.796875 15.609375 L 125.796875 207 L 207.612503 207 L 207.612503 15.46875 L 129.425003 15.46875 L 129.425003 15.609375 Z M 312.237488 15.46875 L 234.050003 15.46875 L 234.050003 207 L 312.237488 207 L 312.237488 15.46875 Z M 351.049988 15.46875 L 338.393738 15.46875 L 338.393738 207 L 416.159363 207 L 416.159363 76.921875 C 416.159363 66.984329 415.081268 58.218781 412.924988 50.625 C 406.174957 27.187378 385.550171 15.46875 351.049988 15.46875 Z"/>
</svg>
